<svg xmlns="http://www.w3.org/2000/svg" xmlns:xlink="http://www.w3.org/1999/xlink" width="914" zoomAndPan="magnify" viewBox="0 0 685.5 805.49998" height="1074" preserveAspectRatio="xMidYMid meet" version="1.2"><defs><clipPath id="820f80262a"><path d="M 104 753 L 594.414062 753 L 594.414062 804.652344 L 104 804.652344 Z M 104 753 "/></clipPath><clipPath id="0579e9adf4"><path d="M 90.78125 330 L 135 330 L 135 386 L 90.78125 386 Z M 90.78125 330 "/></clipPath><clipPath id="73a2be56e6"><path d="M 120 0.347656 L 394 0.347656 L 394 232 L 120 232 Z M 120 0.347656 "/></clipPath><clipPath id="5b6d4af9c0"><path d="M 123 0.347656 L 394 0.347656 L 394 145 L 123 145 Z M 123 0.347656 "/></clipPath></defs><g id="d79f82ce96"><g clip-rule="nonzero" clip-path="url(#820f80262a)"><path style=" stroke:none;fill-rule:nonzero;fill:#009e73;fill-opacity:0.61;" d="M 594.414062 779.324219 C 594.414062 793.320312 484.695312 804.652344 349.269531 804.652344 C 213.847656 804.652344 104.125 793.320312 104.125 779.324219 C 104.125 765.328125 213.847656 753.996094 349.269531 753.996094 C 484.695312 753.996094 594.414062 765.328125 594.414062 779.324219 Z M 594.414062 779.324219 "/></g><path style=" stroke:none;fill-rule:nonzero;fill:#ff4c00;fill-opacity:1;" d="M 450.09375 446.40625 L 414.707031 419.304688 C 414.707031 419.304688 424.691406 398.703125 423.902344 394.371094 C 421.035156 379.292969 367.953125 367.660156 366.765625 367.660156 L 392.765625 476.167969 L 228.476562 489.082031 L 231.738281 387.667969 C 231.046875 387.964844 190.617188 407.476562 188.542969 414.476562 C 186.367188 421.472656 193.289062 428.273438 193.289062 428.273438 L 160.964844 463.949219 C 160.964844 463.949219 128.046875 429.847656 129.828125 405.210938 C 131.410156 382.9375 167.191406 360.269531 196.253906 341.148438 C 216.023438 328.140625 238.660156 320.355469 261.886719 315.921875 L 304.984375 307.839844 C 320.800781 304.882812 336.714844 303.796875 352.53125 304.585938 C 377.640625 305.671875 445.945312 326.070312 471.546875 369.335938 C 485.285156 392.496094 450.09375 446.40625 450.09375 446.40625 Z M 450.09375 446.40625 "/><path style=" stroke:none;fill-rule:nonzero;fill:#ee3700;fill-opacity:1;" d="M 351.246094 313.257812 C 350.949219 312.273438 349.46875 312.570312 349.664062 313.65625 C 353.621094 329.816406 356.089844 348.050781 362.515625 363.421875 C 362.8125 364.113281 363.703125 363.621094 363.601562 363.03125 C 361.921875 346.472656 355.398438 329.324219 351.246094 313.257812 Z M 351.246094 313.257812 "/><path style=" stroke:none;fill-rule:nonzero;fill:#ee3700;fill-opacity:1;" d="M 377.640625 329.125 C 371.90625 340.164062 367.457031 351.597656 364.988281 363.820312 C 364.886719 364.410156 365.777344 364.800781 365.976562 364.113281 C 369.039062 352.191406 373.191406 340.953125 379.417969 330.308594 C 380.210938 329.125 378.234375 327.847656 377.640625 329.125 Z M 377.640625 329.125 "/><path style=" stroke:none;fill-rule:nonzero;fill:#ee3700;fill-opacity:1;" d="M 233.617188 331.984375 C 233.421875 330.605469 231.246094 331.097656 231.542969 332.476562 C 234.308594 348.34375 234.804688 364.113281 232.925781 380.078125 C 228.476562 368.351562 221.460938 357.609375 213.355469 348.148438 C 212.761719 347.457031 211.671875 348.441406 212.265625 349.132812 C 220.765625 359.679688 226.597656 371.011719 231.441406 383.527344 C 231.640625 384.023438 232.035156 384.21875 232.53125 384.21875 C 232.828125 385.304688 234.703125 385.304688 234.902344 383.921875 C 237.078125 366.480469 236.683594 349.230469 233.617188 331.984375 Z M 233.617188 331.984375 "/><path style=" stroke:none;fill-rule:nonzero;fill:#311f22;fill-opacity:1;" d="M 262.285156 758.824219 C 246.074219 766.808594 148.113281 781.886719 137.140625 763.847656 C 136.054688 762.078125 135.757812 760.300781 135.957031 758.425781 C 137.140625 749.757812 153.945312 739.503906 170.453125 731.425781 C 186.960938 723.445312 203.171875 717.628906 203.171875 717.628906 L 250.519531 720.976562 C 250.519531 720.976562 266.238281 737.832031 267.226562 749.558594 C 267.71875 753.402344 266.335938 756.753906 262.285156 758.824219 Z M 262.285156 758.824219 "/><path style=" stroke:none;fill-rule:nonzero;fill:#876e71;fill-opacity:1;" d="M 202.972656 734.183594 C 195.660156 726.59375 183.105469 727.285156 173.417969 728.46875 C 169.265625 728.960938 170.75 735.269531 174.800781 734.773438 C 181.820312 733.886719 192.792969 732.90625 198.128906 738.519531 C 201.097656 741.476562 205.839844 737.238281 202.972656 734.183594 Z M 202.972656 734.183594 "/><path style=" stroke:none;fill-rule:nonzero;fill:#876e71;fill-opacity:1;" d="M 190.023438 742.464844 C 180.042969 737.140625 169.367188 735.464844 158.296875 737.335938 C 154.242188 738.027344 155.625 744.335938 159.679688 743.644531 C 168.972656 741.96875 178.164062 743.449219 186.464844 747.785156 C 190.125 749.855469 193.683594 744.4375 190.023438 742.464844 Z M 190.023438 742.464844 "/><path style=" stroke:none;fill-rule:nonzero;fill:#876e71;fill-opacity:1;" d="M 262.285156 758.824219 C 246.074219 766.808594 148.113281 781.882812 137.140625 763.847656 C 136.054688 762.078125 135.757812 760.300781 135.957031 758.425781 C 155.625 762.667969 204.953125 768.972656 267.324219 749.558594 C 267.71875 753.402344 266.335938 756.753906 262.285156 758.824219 Z M 262.285156 758.824219 "/><path style=" stroke:none;fill-rule:nonzero;fill:#311f22;fill-opacity:1;" d="M 370.820312 758.328125 C 386.238281 767.890625 482.222656 792.433594 494.972656 775.480469 C 496.160156 773.804688 496.75 772.03125 496.652344 770.160156 C 496.359375 761.386719 480.640625 749.558594 464.925781 740 C 449.304688 730.441406 433.6875 723.046875 433.6875 723.046875 L 386.238281 721.765625 C 386.238281 721.765625 368.941406 737.042969 366.765625 748.574219 C 365.976562 752.515625 366.964844 755.964844 370.820312 758.328125 Z M 370.820312 758.328125 "/><path style=" stroke:none;fill-rule:nonzero;fill:#876e71;fill-opacity:1;" d="M 463.34375 737.535156 C 453.257812 737.4375 443.175781 738.816406 435.464844 745.914062 C 432.402344 748.769531 436.75 753.503906 439.8125 750.742188 C 446.238281 744.828125 454.644531 743.941406 463.042969 744.039062 C 467.195312 744.039062 467.492188 737.636719 463.34375 737.535156 Z M 463.34375 737.535156 "/><path style=" stroke:none;fill-rule:nonzero;fill:#876e71;fill-opacity:1;" d="M 452.566406 729.847656 C 441.296875 729.160156 430.722656 732.507812 421.726562 739.308594 C 418.367188 741.773438 422.8125 746.601562 426.074219 744.136719 C 433.6875 738.421875 442.78125 735.761719 452.269531 736.355469 C 456.421875 736.550781 456.71875 730.144531 452.566406 729.847656 Z M 452.566406 729.847656 "/><path style=" stroke:none;fill-rule:nonzero;fill:#876e71;fill-opacity:1;" d="M 370.820312 758.332031 C 386.238281 767.890625 482.222656 792.433594 494.972656 775.480469 C 496.160156 773.804688 496.75 772.03125 496.652344 770.160156 C 476.6875 772.425781 426.964844 773.902344 366.765625 748.574219 C 365.976562 752.515625 366.964844 755.96875 370.820312 758.332031 Z M 370.820312 758.332031 "/><path style=" stroke:none;fill-rule:nonzero;fill:#a33d32;fill-opacity:1;" d="M 258.429688 286.847656 C 259.8125 290.199219 262.480469 321.144531 262.480469 321.144531 L 282.054688 333.464844 C 288.378906 336.515625 295.992188 334.941406 300.734375 329.816406 L 317.738281 311.191406 L 309.335938 274.921875 Z M 258.429688 286.847656 "/><path style=" stroke:none;fill-rule:nonzero;fill:#321a29;fill-opacity:1;" d="M 182.019531 296.40625 C 171.839844 308.824219 146.730469 305.179688 146.730469 305.179688 C 146.730469 305.179688 138.128906 281.328125 148.214844 268.910156 C 158.394531 256.492188 183.5 260.140625 183.5 260.140625 C 183.5 260.140625 192.199219 283.988281 182.019531 296.40625 Z M 182.019531 296.40625 "/><path style=" stroke:none;fill-rule:nonzero;fill:#321a29;fill-opacity:1;" d="M 159.183594 326.761719 C 150.78125 340.363281 125.378906 339.96875 125.378906 339.96875 C 125.378906 339.96875 113.8125 317.496094 122.214844 303.796875 C 130.714844 290.199219 156.121094 290.59375 156.121094 290.59375 C 156.121094 290.59375 167.6875 313.0625 159.183594 326.761719 Z M 159.183594 326.761719 "/><g clip-rule="nonzero" clip-path="url(#0579e9adf4)"><path style=" stroke:none;fill-rule:nonzero;fill:#321a29;fill-opacity:1;" d="M 130.714844 380.867188 C 123.601562 395.253906 84.554688 375.941406 91.671875 361.550781 C 98.789062 347.160156 132 330.507812 132 330.507812 C 132 330.507812 137.832031 366.480469 130.714844 380.867188 Z M 130.714844 380.867188 "/></g><path style=" stroke:none;fill-rule:nonzero;fill:#ffb2d5;fill-opacity:1;" d="M 139.710938 343.910156 C 136.945312 349.53125 131.902344 349.726562 124.292969 345.980469 C 116.582031 342.234375 113.515625 338.488281 116.285156 332.871094 C 119.050781 327.257812 123.105469 329.324219 130.816406 333.167969 C 138.527344 336.816406 142.480469 338.195312 139.710938 343.910156 Z M 139.710938 343.910156 "/><path style=" stroke:none;fill-rule:nonzero;fill:#321a29;fill-opacity:1;" d="M 382.582031 265.558594 C 396.71875 272.753906 417.179688 259.351562 417.179688 259.351562 C 417.179688 259.351562 414.707031 234.316406 400.574219 227.125 C 386.4375 219.929688 365.976562 233.332031 365.976562 233.332031 C 365.976562 233.332031 368.449219 258.367188 382.582031 265.558594 Z M 382.582031 265.558594 "/><path style=" stroke:none;fill-rule:nonzero;fill:#321a29;fill-opacity:1;" d="M 415.304688 283.890625 C 428.449219 292.859375 450.492188 282.214844 450.492188 282.214844 C 450.492188 282.214844 451.085938 257.183594 437.9375 248.214844 C 424.792969 239.246094 402.75 249.890625 402.75 249.890625 C 402.75 249.890625 402.058594 274.921875 415.304688 283.890625 Z M 415.304688 283.890625 "/><path style=" stroke:none;fill-rule:nonzero;fill:#321a29;fill-opacity:1;" d="M 463.144531 321.535156 C 475.5 331.6875 501.398438 298.574219 489.140625 288.324219 C 476.785156 278.175781 440.804688 276.398438 440.804688 276.398438 C 440.804688 276.398438 450.785156 311.386719 463.144531 321.535156 Z M 463.144531 321.535156 "/><path style=" stroke:none;fill-rule:nonzero;fill:#ffb2d5;fill-opacity:1;" d="M 439.617188 291.578125 C 444.464844 295.621094 448.910156 293.746094 453.953125 287.242188 C 459.09375 280.738281 460.179688 276.105469 455.335938 272.164062 C 450.492188 268.121094 447.820312 271.769531 442.683594 278.175781 C 437.640625 284.679688 434.773438 287.636719 439.617188 291.578125 Z M 439.617188 291.578125 "/><path style=" stroke:none;fill-rule:nonzero;fill:#c8593d;fill-opacity:1;" d="M 119.25 234.515625 C 117.570312 248.609375 128.640625 263.09375 143.960938 266.742188 C 159.285156 270.386719 173.121094 261.8125 174.804688 247.722656 C 176.484375 233.628906 165.414062 219.140625 150.089844 215.492188 C 134.769531 211.847656 120.929688 220.421875 119.25 234.515625 Z M 119.25 234.515625 "/><path style="fill:none;stroke-width:3.026;stroke-linecap:round;stroke-linejoin:round;stroke:#311f22;stroke-opacity:1;stroke-miterlimit:10;" d="M 23.351473 83.272799 C 23.019843 82.6119 20.698435 75.895382 13.434041 78.773703 " transform="matrix(2.980075,0,0,2.978897,90.781962,0.349088)"/><path style="fill:none;stroke-width:3.026;stroke-linecap:round;stroke-linejoin:round;stroke:#311f22;stroke-opacity:1;stroke-miterlimit:10;" d="M 16.153929 83.967792 C 16.153929 83.967792 17.447678 79.236594 21.394465 80.064029 " transform="matrix(2.980075,0,0,2.978897,90.781962,0.349088)"/><path style=" stroke:none;fill-rule:nonzero;fill:#c8593d;fill-opacity:1;" d="M 418.960938 198.738281 C 421.726562 212.734375 411.839844 227.910156 396.816406 232.742188 C 381.792969 237.570312 367.359375 230.082031 364.59375 216.183594 C 361.824219 202.1875 371.707031 187.011719 386.734375 182.183594 C 401.757812 177.355469 416.191406 184.84375 418.960938 198.738281 Z M 418.960938 198.738281 "/><path style="fill:none;stroke-width:3.026;stroke-linecap:round;stroke-linejoin:round;stroke:#311f22;stroke-opacity:1;stroke-miterlimit:10;" d="M 96.755676 72.289286 C 97.054536 71.627076 98.846385 64.745334 106.275939 67.062414 " transform="matrix(2.980075,0,0,2.978897,90.781962,0.349088)"/><path style=" stroke:none;fill-rule:nonzero;fill:#311f22;fill-opacity:1;" d="M 400.574219 216.085938 C 400.574219 216.085938 395.628906 202.386719 384.164062 205.738281 Z M 400.574219 216.085938 "/><path style=" stroke:none;fill-rule:nonzero;fill:#c8593d;fill-opacity:1;" d="M 384.460938 128.46875 C 374.476562 55.835938 304.789062 5.96875 231.441406 21.539062 C 169.761719 34.546875 126.566406 91.90625 131.113281 154.585938 C 132.496094 173.410156 137.832031 190.855469 146.136719 206.230469 C 152.464844 217.957031 155.921875 230.96875 157.308594 244.171875 C 159.875 268.613281 181.523438 306.460938 278.394531 293.253906 C 382.1875 279.0625 389.898438 237.867188 383.570312 213.820312 C 380.011719 200.121094 379.914062 185.730469 382.878906 171.835938 C 385.84375 158.035156 386.535156 143.351562 384.460938 128.46875 Z M 384.460938 128.46875 "/><path style=" stroke:none;fill-rule:nonzero;fill:#311f22;fill-opacity:1;" d="M 292.433594 263.292969 C 288.777344 266.542969 283.636719 269.007812 276.914062 269.894531 C 264.0625 271.472656 255.859375 266.9375 251.90625 261.320312 C 248.347656 256.296875 248.246094 250.480469 251.3125 247.523438 C 252.695312 246.242188 254.671875 245.453125 257.339844 245.75 C 272.167969 247.128906 292.828125 240.722656 292.828125 240.722656 C 293.816406 240.425781 294.707031 240.328125 295.496094 240.527344 C 301.722656 241.316406 302.121094 254.816406 292.433594 263.292969 Z M 292.433594 263.292969 "/><path style=" stroke:none;fill-rule:nonzero;fill:#ffffff;fill-opacity:1;" d="M 295.496094 240.328125 C 293.816406 242.792969 291.046875 244.765625 288.28125 246.144531 C 276.914062 251.957031 263.074219 252.253906 251.210938 247.425781 C 252.597656 246.144531 254.574219 245.355469 257.242188 245.652344 C 272.070312 247.03125 292.730469 240.625 292.730469 240.625 C 293.816406 240.230469 294.707031 240.230469 295.496094 240.328125 Z M 295.496094 240.328125 "/><path style=" stroke:none;fill-rule:nonzero;fill:#b93e35;fill-opacity:1;" d="M 292.433594 263.292969 C 288.773438 266.542969 283.636719 269.007812 276.914062 269.894531 C 264.0625 271.472656 255.859375 266.9375 251.90625 261.320312 C 254.769531 259.25 257.933594 257.773438 261.195312 256.886719 C 267.324219 255.210938 273.847656 255.40625 280.078125 256.886719 C 283.042969 257.574219 286.007812 258.660156 288.675781 260.335938 C 290.058594 261.023438 291.34375 262.109375 292.433594 263.292969 Z M 292.433594 263.292969 "/><path style=" stroke:none;fill-rule:nonzero;fill:#a33d32;fill-opacity:1;" d="M 380.902344 189.671875 C 380.902344 189.671875 360.242188 154.882812 351.347656 150.742188 C 351.347656 150.742188 281.066406 148.871094 255.066406 118.21875 C 255.066406 118.21875 228.578125 173.410156 169.367188 183.660156 L 155.328125 223.476562 C 155.328125 223.476562 107.980469 81.753906 235.398438 73.574219 C 362.8125 65.394531 380.308594 135.566406 380.902344 189.671875 Z M 380.902344 189.671875 "/><path style="fill:none;stroke-width:3.026;stroke-linecap:round;stroke-linejoin:round;stroke:#311f22;stroke-opacity:1;stroke-miterlimit:10;" d="M 60.302624 70.271184 L 61.165124 75.035165 C 61.165124 75.035165 64.316261 74.207729 64.979521 75.630498 C 65.64278 77.053267 62.624032 78.310811 62.624032 78.310811 " transform="matrix(2.980075,0,0,2.978897,90.781962,0.349088)"/><path style=" stroke:none;fill-rule:nonzero;fill:#a9371e;fill-opacity:1;" d="M 374.082031 232.148438 C 376.257812 244.273438 366.765625 256.195312 352.929688 258.660156 C 339.089844 261.125 326.042969 253.339844 323.867188 241.117188 C 321.691406 228.996094 331.179688 217.070312 345.019531 214.605469 C 358.859375 212.144531 371.90625 220.027344 374.082031 232.148438 Z M 374.082031 232.148438 "/><path style=" stroke:none;fill-rule:nonzero;fill:#a9371e;fill-opacity:1;" d="M 224.621094 259.546875 C 224.425781 271.867188 212.761719 281.722656 198.722656 281.425781 C 184.6875 281.230469 173.417969 270.980469 173.617188 258.660156 C 173.816406 246.339844 185.480469 236.484375 199.515625 236.78125 C 213.652344 236.976562 224.820312 247.226562 224.621094 259.546875 Z M 224.621094 259.546875 "/><g clip-rule="nonzero" clip-path="url(#73a2be56e6)"><path style=" stroke:none;fill-rule:nonzero;fill:#321a29;fill-opacity:1;" d="M 393.554688 144.730469 C 391.777344 175.285156 381 197.851562 381 197.851562 C 375.761719 181.789062 367.753906 155.867188 359.253906 144.238281 C 319.714844 137.832031 261.890625 123.445312 249.136719 95.453125 C 240.933594 135.269531 205.546875 161.09375 163.632812 181.589844 C 158.789062 195.191406 156.515625 214.902344 155.921875 231.855469 C 155.921875 231.855469 110.355469 180.902344 123.105469 117.234375 C 126.566406 100.085938 134.175781 82.050781 148.113281 63.820312 C 203.46875 -8.816406 231.34375 7.542969 239.253906 15.035156 C 243.898438 6.066406 265.449219 -21.234375 341.164062 34.449219 C 386.636719 67.957031 395.535156 111.125 393.554688 144.730469 Z M 393.554688 144.730469 "/></g><g clip-rule="nonzero" clip-path="url(#5b6d4af9c0)"><path style=" stroke:none;fill-rule:nonzero;fill:#c6c6c6;fill-opacity:0.14;" d="M 393.554688 144.730469 C 376.75 65.492188 315.859375 35.238281 287.195312 21.933594 C 257.042969 7.9375 241.230469 32.972656 241.230469 32.972656 C 200.40625 11.585938 148.609375 78.601562 123.105469 117.136719 C 126.566406 99.988281 134.175781 81.953125 148.113281 63.71875 C 203.46875 -8.914062 231.34375 7.445312 239.253906 14.933594 C 243.898438 5.96875 265.445312 -21.332031 341.164062 34.351562 C 386.636719 67.957031 395.53125 111.125 393.554688 144.730469 Z M 393.554688 144.730469 "/></g><path style=" stroke:none;fill-rule:nonzero;fill:#c8593d;fill-opacity:1;" d="M 343.042969 183.070312 C 343.042969 183.070312 323.765625 155.078125 299.746094 174.398438 C 299.847656 174.398438 324.757812 133.300781 343.042969 183.070312 Z M 343.042969 183.070312 "/><path style=" stroke:none;fill-rule:nonzero;fill:#c8593d;fill-opacity:1;" d="M 235.792969 186.023438 C 235.792969 186.023438 204.753906 171.933594 194.277344 200.90625 C 194.277344 200.90625 194.375 152.8125 235.792969 186.023438 Z M 235.792969 186.023438 "/><path style=" stroke:none;fill-rule:nonzero;fill:#00092c;fill-opacity:1;" d="M 307.457031 209.183594 C 309.039062 210.269531 314.179688 199.824219 325.449219 197.753906 C 335.828125 195.78125 343.636719 202.386719 344.527344 200.90625 C 345.710938 198.9375 334.445312 183.757812 321.789062 186.617188 C 309.136719 189.277344 305.480469 207.804688 307.457031 209.183594 Z M 307.457031 209.183594 "/><path style=" stroke:none;fill-rule:nonzero;fill:#00092c;fill-opacity:1;" d="M 203.667969 225.25 C 205.25 226.332031 210.386719 215.886719 221.65625 213.816406 C 232.035156 211.847656 239.84375 218.449219 240.734375 216.972656 C 241.921875 215 230.652344 199.824219 218 202.679688 C 205.347656 205.441406 201.691406 223.871094 203.667969 225.25 Z M 203.667969 225.25 "/><path style=" stroke:none;fill-rule:nonzero;fill:#ffb2d5;fill-opacity:1;" d="M 365.085938 726.203125 L 314.671875 569.597656 L 267.128906 725.710938 L 181.921875 715.753906 L 228.476562 489.078125 L 245.085938 405.800781 C 246.765625 397.425781 252.992188 391.019531 260.605469 389.933594 L 342.351562 377.914062 C 350.359375 376.730469 358.066406 381.65625 361.230469 389.933594 L 392.664062 476.167969 C 392.664062 476.167969 442.78125 707.574219 445.449219 714.867188 C 448.21875 722.164062 365.085938 726.203125 365.085938 726.203125 Z M 365.085938 726.203125 "/><path style=" stroke:none;fill-rule:nonzero;fill:#ffb2d5;fill-opacity:1;" d="M 320.40625 301.632812 L 335.136719 392.695312 L 351.148438 390.722656 L 337.507812 299.660156 C 332.367188 298.476562 326.632812 299.464844 320.40625 301.632812 Z M 320.40625 301.632812 "/><path style=" stroke:none;fill-rule:nonzero;fill:#ffb2d5;fill-opacity:1;" d="M 347.492188 385.792969 C 347.394531 388.457031 345.117188 390.523438 342.449219 390.328125 C 339.78125 390.230469 337.707031 387.964844 337.902344 385.304688 C 338.003906 382.644531 340.277344 380.574219 342.945312 380.769531 C 345.613281 380.964844 347.6875 383.132812 347.492188 385.792969 Z M 347.492188 385.792969 "/><path style=" stroke:none;fill-rule:nonzero;fill:#ffb2d5;fill-opacity:1;" d="M 271.972656 401.761719 C 272.070312 400.382812 259.023438 313.257812 259.023438 313.257812 C 252.695312 313.359375 247.554688 315.132812 243.304688 318.1875 L 255.464844 404.621094 Z M 271.972656 401.761719 "/><path style=" stroke:none;fill-rule:nonzero;fill:#ffb2d5;fill-opacity:1;" d="M 268.117188 398.015625 C 268.015625 400.675781 265.644531 402.84375 262.976562 402.648438 C 260.308594 402.550781 258.132812 400.1875 258.328125 397.527344 C 258.429688 394.863281 260.800781 392.695312 263.46875 392.894531 C 266.140625 393.089844 268.214844 395.355469 268.117188 398.015625 Z M 268.117188 398.015625 "/><path style=" stroke:none;fill-rule:nonzero;fill:#f678b2;fill-opacity:1;" d="M 231.34375 490.363281 C 230.554688 490.363281 229.863281 489.671875 229.960938 488.785156 C 229.960938 487.996094 230.652344 487.304688 231.542969 487.304688 C 285.613281 488.984375 338.59375 484.84375 389.007812 474.988281 C 389.800781 474.789062 390.589844 475.382812 390.785156 476.171875 C 390.984375 476.957031 390.394531 477.746094 389.601562 477.945312 C 338.992188 487.800781 285.710938 492.035156 231.34375 490.363281 C 231.445312 490.363281 231.445312 490.363281 231.34375 490.363281 Z M 231.34375 490.363281 "/><path style=" stroke:none;fill-rule:nonzero;fill:#f678b2;fill-opacity:1;" d="M 245.28125 501.300781 C 239.84375 501.007812 234.308594 500.710938 228.871094 500.21875 C 228.082031 500.117188 227.390625 499.429688 227.488281 498.640625 C 227.589844 497.855469 228.28125 497.261719 229.070312 497.261719 C 282.054688 501.597656 336.816406 497.457031 391.875 485.140625 C 392.664062 484.941406 393.457031 485.4375 393.652344 486.226562 C 393.851562 487.011719 393.359375 487.800781 392.566406 487.996094 C 342.84375 499.234375 293.320312 503.667969 245.28125 501.300781 Z M 245.28125 501.300781 "/><path style=" stroke:none;fill-rule:nonzero;fill:#f678b2;fill-opacity:1;" d="M 301.625 470.355469 C 292.925781 469.960938 285.910156 467.496094 280.472656 462.960938 C 268.90625 453.402344 266.433594 436.355469 265.644531 419.402344 C 265.644531 418.617188 266.140625 417.925781 266.929688 417.828125 L 343.636719 407.476562 C 344.425781 407.378906 345.21875 407.972656 345.316406 408.757812 C 348.28125 428.175781 350.0625 445.222656 341.460938 456.65625 C 336.125 463.753906 327.226562 467.992188 314.375 469.761719 C 309.730469 470.257812 305.480469 470.453125 301.625 470.355469 Z M 268.609375 420.585938 C 269.5 436.453125 271.972656 452.023438 282.351562 460.597656 C 289.566406 466.613281 299.847656 468.582031 313.882812 466.710938 C 325.941406 465.132812 334.144531 461.191406 338.988281 454.78125 C 346.699219 444.535156 345.21875 428.667969 342.449219 410.535156 Z M 268.609375 420.585938 "/><path style=" stroke:none;fill-rule:nonzero;fill:#ff90c7;fill-opacity:1;" d="M 357.773438 710.632812 L 365.285156 738.226562 C 388.511719 739.113281 419.058594 735.074219 452.960938 728.964844 L 442.980469 693.285156 C 411.742188 703.140625 382.679688 710.042969 357.773438 710.632812 Z M 357.773438 710.632812 "/><path style=" stroke:none;fill-rule:nonzero;fill:#ff90c7;fill-opacity:1;" d="M 276.121094 704.816406 C 249.53125 702.941406 218 696.4375 184.292969 687.667969 L 173.023438 723.835938 C 210.289062 730.835938 245.777344 736.746094 267.421875 736.945312 Z M 276.121094 704.816406 "/><path style=" stroke:none;fill-rule:nonzero;fill:#c8593d;fill-opacity:1;" d="M 429.535156 441.183594 C 425.484375 433.988281 405.121094 416.742188 386.832031 429.457031 C 379.417969 434.679688 379.023438 439.902344 382.78125 444.238281 C 378.824219 447.6875 375.464844 451.730469 374.179688 456.753906 C 372.992188 461.484375 374.972656 468.972656 380.507812 468.679688 C 379.914062 470.554688 379.8125 472.621094 380.605469 474.59375 C 382.1875 478.929688 387.820312 482.476562 392.269531 480.605469 C 392.269531 480.605469 392.269531 480.503906 392.367188 480.503906 C 392.171875 483.660156 394.050781 486.816406 397.113281 488.097656 C 399.882812 489.277344 404.230469 490.460938 407.789062 487.40625 C 407.988281 489.964844 408.679688 491.347656 411.546875 492.527344 C 420.042969 496.175781 432.597656 482.476562 435.566406 476.664062 C 441.792969 464.738281 435.664062 451.925781 429.535156 441.183594 Z M 429.535156 441.183594 "/><path style=" stroke:none;fill-rule:nonzero;fill:#311f22;fill-opacity:1;" d="M 401.363281 432.3125 C 397.707031 433.789062 394.148438 435.371094 390.785156 437.339844 C 390.785156 435.46875 391.378906 433.890625 392.269531 432.3125 C 392.667969 431.527344 391.675781 430.835938 391.183594 431.527344 C 389.699219 433.398438 389.304688 435.859375 389.5 438.128906 C 387.328125 439.507812 385.25 441.183594 383.472656 443.054688 C 383.273438 443.253906 383.570312 443.550781 383.769531 443.351562 C 389.105469 438.621094 395.632812 436.160156 402.15625 433.691406 C 403.042969 433.398438 402.351562 431.917969 401.363281 432.3125 Z M 401.363281 432.3125 "/><path style=" stroke:none;fill-rule:nonzero;fill:#c8593d;fill-opacity:1;" d="M 415.300781 431.230469 L 419.253906 422.65625 L 445.546875 442.859375 L 434.183594 462.273438 Z M 415.300781 431.230469 "/><path style=" stroke:none;fill-rule:nonzero;fill:#c8593d;fill-opacity:1;" d="M 184.292969 486.914062 C 188.34375 492.035156 203.171875 503.175781 210.882812 498.046875 C 213.453125 496.375 213.945312 494.996094 213.550781 492.332031 C 217.703125 494.695312 221.65625 492.726562 224.226562 491.050781 C 226.996094 489.179688 228.28125 485.828125 227.488281 482.675781 L 227.589844 482.773438 C 232.332031 483.855469 237.277344 479.222656 237.96875 474.789062 C 238.265625 472.722656 237.867188 470.652344 236.980469 468.972656 C 242.515625 468.285156 243.109375 460.5 241.03125 456.0625 C 238.855469 451.332031 234.804688 447.984375 230.257812 445.320312 C 233.222656 440.296875 231.839844 435.269531 223.535156 431.523438 C 203.273438 422.359375 186.46875 443.054688 183.796875 450.839844 C 179.648438 462.570312 175.988281 476.367188 184.292969 486.914062 Z M 184.292969 486.914062 "/><path style=" stroke:none;fill-rule:nonzero;fill:#311f22;fill-opacity:1;" d="M 209.796875 437.042969 C 213.652344 437.832031 217.507812 438.71875 221.164062 440.101562 C 220.769531 438.324219 219.878906 436.847656 218.792969 435.371094 C 218.296875 434.679688 219.085938 433.789062 219.78125 434.382812 C 221.558594 435.960938 222.449219 438.324219 222.644531 440.589844 C 225.019531 441.578125 227.390625 442.859375 229.566406 444.335938 C 229.761719 444.53125 229.566406 444.832031 229.367188 444.730469 C 223.238281 441.082031 216.417969 439.898438 209.5 438.621094 C 208.3125 438.421875 208.707031 436.847656 209.796875 437.042969 Z M 209.796875 437.042969 "/><path style=" stroke:none;fill-rule:nonzero;fill:#c8593d;fill-opacity:1;" d="M 195.957031 438.523438 L 190.617188 431.128906 L 168.378906 455.671875 L 183.105469 472.523438 Z M 195.957031 438.523438 "/></g></svg>