<svg xmlns="http://www.w3.org/2000/svg" width="122" height="100" viewBox="0 0 122 100" fill="none"><circle opacity="0.1" cx="50" cy="50" r="50" fill="white"></circle><g clip-path="url(#clip0_1573_6181)"><path d="M102.717 51.0647L34.7026 40.3379L27.704 84.3027L95.7182 95.0295L102.717 51.0647Z" fill="#00968B"></path><path d="M34.7878 40.2019L72.2918 23.6206L102.758 50.931L34.7878 40.2019Z" fill="#00BBAE"></path><path d="M100.148 35.9111L41.9006 26.7246L33.229 81.1989L91.4766 90.3854L100.148 35.9111Z" fill="#F2F2F2"></path><path d="M94.0036 41.327L46.0505 33.7642L45.8693 34.9027L93.8224 42.4656L94.0036 41.327Z" fill="#CFDBDA"></path><path d="M93.4667 44.787L45.5137 37.2241L45.3324 38.3627L93.2855 45.9255L93.4667 44.787Z" fill="#CFDBDA"></path><path d="M92.9297 48.2475L44.9767 40.6846L44.7954 41.8231L92.7485 49.386L92.9297 48.2475Z" fill="#CFDBDA"></path><path d="M92.3929 51.7074L44.4398 44.1445L44.2586 45.2831L92.2116 52.8459L92.3929 51.7074Z" fill="#CFDBDA"></path><path d="M91.768 55.1537L43.8149 47.5908L43.6337 48.7294L91.5868 56.2922L91.768 55.1537Z" fill="#CFDBDA"></path><path d="M91.2452 58.5263L43.2921 50.9634L43.1109 52.1019L91.0639 59.6648L91.2452 58.5263Z" fill="#CFDBDA"></path><path d="M90.7083 61.9867L42.7552 54.4238L42.574 55.5624L90.5271 63.1252L90.7083 61.9867Z" fill="#CFDBDA"></path><path d="M90.1713 65.4472L42.2183 57.8843L42.037 59.0228L89.9901 66.5857L90.1713 65.4472Z" fill="#CFDBDA"></path><path d="M34.7878 40.2905L65.2542 67.6895L27.7502 84.2708L34.7878 40.2905Z" fill="#00BBAE"></path><path d="M102.758 51.0195L65.2542 67.6895L95.7205 94.9998L102.758 51.0195Z" fill="#00BBAE"></path><path d="M27.7502 84.2711C27.7502 84.2711 58.662 66.6258 65.2542 67.6898C71.8463 68.7539 95.7206 95.0002 95.7206 95.0002L27.7502 84.2711Z" fill="#38EEE1"></path><path d="M94.5624 28.4091C94.5624 28.4091 94.9188 27.2564 95.8096 25.749C96.255 24.951 96.7895 24.0643 97.4131 23.1776C98.0367 22.2022 98.8384 21.3155 99.6402 20.4288C100.086 19.9855 100.442 19.4535 100.887 19.0101C101.333 18.5668 101.689 18.1234 102.224 17.7687C102.758 17.414 103.203 17.148 103.738 17.0594C104.272 16.882 104.718 16.7934 105.252 16.7047C105.787 16.616 106.232 16.616 106.589 16.7047C107.034 16.7047 107.39 16.7934 107.658 16.882C108.281 17.0594 108.638 17.2367 108.638 17.2367C108.816 17.3254 108.816 17.5027 108.816 17.6801C108.816 17.6801 108.638 18.0347 108.281 18.4781C108.103 18.7441 107.925 19.0101 107.658 19.2761C107.39 19.5421 107.212 19.8968 106.856 20.1628C106.589 20.4288 106.321 20.7835 105.965 21.0495C105.609 21.3155 105.252 21.6702 104.896 21.9362C104.451 22.2022 104.005 22.3796 103.56 22.5569C103.025 22.7342 102.58 23.0003 102.134 23.2663C101.689 23.5323 101.244 23.887 100.798 24.153C100.353 24.5076 99.9074 24.7737 99.462 25.0397C98.6602 25.6604 97.8585 26.281 97.1458 26.8131C95.8096 27.8771 95.0078 28.6751 95.0078 28.6751C94.9188 28.7638 94.7406 28.7638 94.6515 28.6751C94.4733 28.5865 94.4733 28.4978 94.5624 28.4091Z" fill="#F88E0F"></path><path d="M103.471 33.6406C103.471 33.6406 104.272 32.5766 105.609 31.0692C106.321 30.3598 107.123 29.4731 108.014 28.5864C108.905 27.6997 109.974 26.9017 111.132 26.015C111.666 25.5716 112.29 25.2169 112.824 24.7736C113.359 24.3302 113.982 23.9756 114.606 23.7096C115.23 23.4435 115.853 23.2662 116.477 23.1775C117.1 23.0889 117.724 23.0889 118.258 23.0889C118.793 23.0889 119.327 23.1775 119.773 23.2662C120.218 23.3549 120.664 23.5322 120.931 23.6209C121.555 23.8869 121.911 24.1529 121.911 24.1529C122.089 24.2416 122.089 24.4189 122 24.5963C122 24.5963 121.644 24.8623 121.198 25.3056C121.109 25.3943 120.931 25.483 120.753 25.5716C120.575 25.6603 120.486 25.749 120.307 25.9263C119.951 26.1923 119.595 26.4583 119.238 26.6357C118.882 26.9017 118.437 27.1677 117.991 27.4337C117.546 27.6997 117.1 27.9657 116.566 28.1431C116.031 28.3204 115.497 28.4977 114.873 28.6751C114.25 28.8524 113.715 29.0298 113.092 29.2958C112.557 29.5618 111.934 29.7391 111.399 30.0938C110.865 30.3598 110.241 30.6258 109.707 30.8918C109.172 31.1578 108.638 31.4238 108.192 31.6899C107.658 31.9559 107.212 32.2219 106.767 32.3992C105.074 33.2859 103.916 33.9953 103.916 33.9953C103.827 34.0839 103.649 33.9953 103.56 33.9066C103.471 33.8179 103.471 33.7293 103.471 33.6406Z" fill="#F88E0F"></path><path d="M103.56 41.355C103.56 41.355 104.54 40.6456 106.143 39.7589C106.945 39.3156 107.925 38.8722 108.994 38.4289C110.063 37.9855 111.221 37.5422 112.379 37.1875C113.003 37.0101 113.626 36.8328 114.161 36.6555C114.784 36.4781 115.408 36.3008 116.031 36.3008C116.655 36.3008 117.279 36.3895 117.813 36.4781C118.348 36.6555 118.882 36.8328 119.417 37.0101C119.862 37.1875 120.307 37.5422 120.664 37.8082C121.02 38.0742 121.287 38.3402 121.465 38.6062C121.911 39.1382 122.089 39.4929 122.089 39.4929C122.178 39.6702 122.089 39.8476 121.911 39.9363C121.911 39.9363 121.555 40.1136 120.931 40.2909C120.664 40.3796 120.396 40.4683 119.951 40.5569C119.595 40.6456 119.238 40.7343 118.793 40.823C118.348 40.9116 117.991 41.0003 117.546 41.089C117.1 41.1776 116.655 41.2663 116.12 41.2663C115.586 41.2663 115.141 41.1776 114.606 41.089C114.072 41.0003 113.537 40.9116 112.914 41.0003C111.755 41.0003 110.686 41.089 109.617 41.1776C109.083 41.1776 108.548 41.2663 108.103 41.2663C107.569 41.355 107.123 41.355 106.678 41.4436C104.896 41.621 103.738 41.7983 103.738 41.7983C103.649 41.7983 103.471 41.7096 103.471 41.621C103.471 41.5323 103.471 41.4436 103.56 41.355Z" fill="#F88E0F"></path><path d="M49.2193 20.2513C49.2193 20.2513 48.6848 19.2759 47.7939 17.7685C47.3485 17.0592 46.814 16.2611 46.1904 15.3744C45.9232 14.9311 45.5669 14.5764 45.2996 14.1331C44.9433 13.6897 44.676 13.2464 44.3197 12.8917C43.9634 12.4483 43.607 12.0937 43.1616 11.739C42.7162 11.3843 42.3599 11.0296 42.0926 10.6749C41.8254 10.3203 41.5581 9.8769 41.38 9.52222C41.1127 9.16754 41.0236 8.72419 40.8455 8.36951C40.4891 8.01483 40.4 7.66015 40.311 7.30547C40.2219 6.95079 40.0437 6.68478 39.9546 6.41877C39.7765 5.88675 39.6874 5.44341 39.6874 5.44341C39.6874 5.26607 39.7765 5.08873 39.9546 5.08873C39.9546 5.08873 40.311 5.00006 40.9345 5.08873C41.2018 5.08873 41.6472 5.1774 42.0035 5.26607C42.3599 5.35474 42.8053 5.53208 43.2507 5.70941C43.6961 5.88675 44.1415 6.24143 44.5869 6.50744C45.0324 6.86212 45.4778 7.2168 45.8341 7.66015C46.1904 8.1035 46.4577 8.72419 46.7249 9.25621C46.9922 9.78823 47.1703 10.4089 47.4376 10.9409C47.883 12.0937 48.3284 13.1577 48.5957 14.2217C48.952 15.2858 49.1302 16.3498 49.3083 17.1478C49.5756 18.9212 49.5756 20.0739 49.5756 20.0739C49.5756 20.2513 49.4865 20.34 49.3083 20.34C49.3083 20.4286 49.2193 20.34 49.2193 20.2513Z" fill="#F88E0F"></path><path d="M39.0638 22.3795C39.0638 22.3795 38.173 21.4041 36.8367 19.9854C36.4804 19.6307 36.1241 19.2761 35.7677 18.8327C35.4114 18.478 34.966 18.0347 34.5206 17.5913C34.0751 17.148 33.6297 16.7933 33.1843 16.35C32.7389 15.9066 32.2935 15.4633 31.759 15.1086C31.3136 14.6652 30.7791 14.3105 30.2446 13.9559C29.7101 13.6012 29.2647 13.3352 28.8193 12.9805C28.552 12.5371 28.1957 12.1825 27.8393 11.7391C27.483 11.3844 27.2158 10.9411 26.9485 10.5864C26.5922 10.3204 26.3249 9.87704 26.1468 9.61103C26.0577 9.34502 25.8795 9.25635 25.7904 9.07901C25.7013 8.90167 25.6123 8.813 25.5232 8.63567C25.1668 8.10365 24.9887 7.74897 24.9887 7.74897C24.8996 7.57163 24.9887 7.39429 25.1668 7.30562C25.1668 7.30562 25.1668 7.30562 25.2559 7.30562C25.2559 7.30562 25.6123 7.21695 26.3249 7.12828C26.6813 7.12828 27.1267 7.03961 27.5721 7.12828C28.0175 7.21695 28.552 7.30562 29.0865 7.39429C29.621 7.57163 30.1555 7.83764 30.69 8.10365C31.2245 8.36966 31.759 8.813 32.2935 9.16768C32.7389 9.61103 33.1843 10.1431 33.6297 10.7637C33.9861 11.3844 34.4315 11.9165 34.7878 12.4485C35.5896 13.6012 36.3022 14.7539 36.9258 15.8179C37.5494 16.882 37.9948 18.0347 38.4402 18.9214C39.242 20.7834 39.5983 22.0248 39.5983 22.0248C39.5983 22.1135 39.5983 22.2908 39.4201 22.2908C39.242 22.4682 39.1529 22.4682 39.0638 22.3795Z" fill="#F88E0F"></path><path d="M36.5694 29.8276C36.5694 29.8276 35.5004 29.2956 33.8969 28.4975C33.5406 28.3202 33.0952 28.1429 32.6498 27.8768C32.2044 27.6995 31.7589 27.4335 31.2244 27.2562C30.2445 26.8128 29.1755 26.3695 28.1065 26.0148C27.572 25.8374 27.0375 25.7488 26.503 25.5714C25.9685 25.4828 25.434 25.3941 24.9886 25.2167C24.5432 25.0394 24.0978 24.8621 23.7415 24.5961C23.3851 24.5074 23.0288 24.33 22.6725 24.064C22.3161 23.8867 22.0489 23.6207 21.6926 23.4433C21.4253 23.1773 21.1581 23.0887 20.8908 22.9113C20.4454 22.5566 20.0891 22.2906 20.0891 22.2906C20 22.202 19.9109 21.936 20.0891 21.8473C20.0891 21.8473 20.3563 21.5813 20.8908 21.2266C21.1581 21.0493 21.5144 20.8719 21.9598 20.7832C22.4052 20.6946 22.8506 20.5172 23.3851 20.4286C23.9196 20.4286 24.4541 20.3399 25.0777 20.4286C25.6122 20.5172 26.2358 20.6059 26.7703 20.7832C27.3048 21.0493 27.8393 21.3153 28.3738 21.7586C28.9083 22.1133 29.3537 22.468 29.8882 22.8227C30.8681 23.532 31.848 24.2414 32.7389 25.0394C33.6297 25.8374 34.3423 26.5468 34.9659 27.1675C36.2131 28.4975 36.9258 29.4729 36.9258 29.4729C37.0148 29.5616 37.0148 29.7389 36.8367 29.8276C36.7476 29.9163 36.6585 29.9163 36.5694 29.8276Z" fill="#F88E0F"></path></g><defs><clipPath id="clip0_1573_6181"><rect width="102" height="90" fill="white" transform="translate(20 5)"></rect></clipPath></defs></svg>